<?xml version="1.0" encoding="UTF-8" standalone="no"?>
<svg width="523px" height="121px" viewBox="0 0 523 121" version="1.1" xmlns="http://www.w3.org/2000/svg" xmlns:xlink="http://www.w3.org/1999/xlink">
    <!-- Generator: Sketch 49.3 (51167) - http://www.bohemiancoding.com/sketch -->
    <title>Page 1</title>
    <desc>Created with Sketch.</desc>
    <defs>
        <polygon id="path-1" points="0.200532441 11.1122449 13.1696326 11.1122449 13.1696326 0.382878571 0.200532441 0.382878571"></polygon>
        <polygon id="path-3" points="0 120.171233 522.843981 120.171233 522.843981 0.0997226726 0 0.0997226726"></polygon>
    </defs>
    <g id="PC" stroke="none" stroke-width="1" fill="none" fill-rule="evenodd">
        <g id="Page-1">
            <polygon id="Fill-1" fill="#FEFEFE" points="73 120 75 120 75 109 73 109"></polygon>
            <g id="Group-38">
                <path d="M80.3738681,120.171233 L80.3738681,109.442978 L82.073242,109.442978 L89.5900818,115.763376 C90.1298974,116.221447 90.536911,116.609141 90.8123522,116.927692 C90.7422622,115.928825 90.7066024,115.311478 90.7066024,115.075651 L90.7066024,109.442978 L92.9556291,109.442978 L92.9556291,120.171233 L91.2587145,120.171233 L83.40864,113.539692 C83.076635,113.261886 82.7802898,112.970498 82.5183747,112.664294 C82.5884646,113.358192 82.6228948,113.924917 82.6228948,114.369406 L82.6228948,120.171233 L80.3738681,120.171233 Z" id="Fill-2" fill="#FEFEFE"></path>
                <g id="Group-6" transform="translate(97.972371, 109.058988)">
                    <mask id="mask-2" fill="white">
                        <use xlink:href="#path-1"></use>
                    </mask>
                    <g id="Clip-5"></g>
                    <path d="M2.69548876,9.10105204 L5.89626318,9.10105204 C7.53415466,9.10105204 8.71092805,8.85781735 9.42658334,8.37011327 C10.2098693,7.84413367 10.6033567,6.93539898 10.6033567,5.64267449 C10.6033567,3.40787857 9.43273158,2.28801122 7.09271094,2.28801122 L2.69548876,2.28801122 L2.69548876,9.10105204 Z M0.200532441,11.1123684 L0.200532441,0.382878571 L7.06811797,0.382878571 C9.03924413,0.382878571 10.5492522,0.848358163 11.5969125,1.77684796 C12.6445728,2.70533776 13.1696326,4.0079398 13.1696326,5.68588878 C13.1696326,6.75513367 12.9273919,7.72189898 12.4453698,8.59729694 C11.9215397,9.51097041 11.1898989,10.1690622 10.252907,10.5715724 C9.39707178,10.9308684 8.12192653,11.1123684 6.42624158,11.1123684 L0.200532441,11.1123684 Z" id="Fill-4" fill="#FEFEFE" mask="url(#mask-2)"></path>
                </g>
                <mask id="mask-4" fill="white">
                    <use xlink:href="#path-3"></use>
                </mask>
                <g id="Clip-8"></g>
                <polygon id="Fill-7" fill="#FEFEFE" mask="url(#mask-4)" points="115.880822 120.171233 118.375779 120.171233 118.375779 109.442978 115.880822 109.442978"></polygon>
                <path d="M127.331061,115.86425 L132.014791,115.86425 L129.714119,111.514424 L127.331061,115.86425 Z M122.54404,120.170862 L128.59391,109.442607 L130.996642,109.442607 L137.130128,120.170862 L134.332678,120.170862 L133.047696,117.805189 L126.274793,117.805189 L125.030389,120.170862 L122.54404,120.170862 Z" id="Fill-9" fill="#FEFEFE" mask="url(#mask-4)"></path>
                <path d="M140.756238,120.171233 L140.756238,109.442978 L142.454382,109.442978 L149.972451,115.763376 C150.511037,116.221447 150.919281,116.609141 151.194722,116.927692 C151.124632,115.928825 151.088972,115.311478 151.088972,115.075651 L151.088972,109.442978 L153.337999,109.442978 L153.337999,120.171233 L151.639855,120.171233 L143.79101,113.539692 C143.459005,113.261886 143.162659,112.970498 142.899515,112.664294 C142.970834,113.358192 143.005264,113.924917 143.005264,114.369406 L143.005264,120.171233 L140.756238,120.171233 Z" id="Fill-10" fill="#FEFEFE" mask="url(#mask-4)"></path>
                <path d="M168.04865,118.336107 L173.000443,118.336107 L173.995229,117.482934 L170.784617,114.798709 L168.04865,116.506291 L168.04865,118.336107 Z M168.613058,120.170862 C167.589991,120.170862 166.889091,119.998005 166.50913,119.649822 C166.129169,119.305342 165.939803,118.632434 165.939803,117.634801 L165.939803,116.927322 C165.939803,116.413689 166.043093,116.013648 166.249674,115.72226 C166.415677,115.500016 166.75383,115.237026 167.265364,114.930822 L169.441841,113.622046 C168.834395,113.108413 168.529442,112.567618 168.529442,112.000893 L168.529442,111.395893 C168.529442,110.647669 168.743401,110.127862 169.172548,109.837709 C169.559888,109.57472 170.228816,109.442607 171.183023,109.442607 L173.337367,109.442607 C174.330923,109.442607 175.015837,109.579658 175.38842,109.854995 C175.789286,110.173546 175.989718,110.751383 175.989718,111.593444 L175.989718,112.240424 L174.062859,112.572556 L174.062859,111.135373 L170.560821,111.135373 L170.560821,111.907056 L175.59746,116.112424 L178.08258,114.029495 L179.492986,115.25925 L177.026312,117.31872 L180.402926,120.170862 L177.150506,120.170862 L175.38842,118.670709 L174.434213,119.525118 C174.118194,119.801689 173.807093,119.983189 173.503369,120.064679 C173.282033,120.135056 172.922975,120.170862 172.424968,120.170862 L168.613058,120.170862 Z" id="Fill-11" fill="#FEFEFE" mask="url(#mask-4)"></path>
                <path d="M191.878003,120.171233 L191.878003,109.442978 L193.576148,109.442978 L201.092987,115.763376 C201.632803,116.221447 202.039817,116.609141 202.315258,116.927692 C202.246398,115.928825 202.209508,115.311478 202.209508,115.075651 L202.209508,109.442978 L204.459764,109.442978 L204.459764,120.171233 L202.76162,120.171233 L194.911546,113.539692 C194.579541,113.261886 194.284425,112.970498 194.02128,112.664294 C194.0926,113.358192 194.1258,113.924917 194.1258,114.369406 L194.1258,120.171233 L191.878003,120.171233 Z" id="Fill-12" fill="#FEFEFE" mask="url(#mask-4)"></path>
                <polygon id="Fill-13" fill="#FEFEFE" mask="url(#mask-4)" points="209.695853 120.171233 209.695853 109.442978 220.637263 109.442978 220.637263 111.277733 212.190809 111.277733 212.190809 113.640937 217.114321 113.640937 217.114321 115.475692 212.190809 115.475692 212.190809 118.159917 220.740553 118.159917 220.740553 120.171233"></polygon>
                <path d="M233.553857,111.277609 L227.957728,111.277609 L227.957728,114.134691 L233.553857,114.134691 C233.939967,114.134691 234.20926,114.093946 234.360506,114.009987 C234.567087,113.886518 234.671607,113.640813 234.671607,113.279048 L234.671607,112.133252 C234.671607,111.771487 234.567087,111.528252 234.360506,111.403548 C234.20926,111.318354 233.939967,111.277609 233.553857,111.277609 Z M225.498431,120.171109 L225.498431,109.442854 L234.658081,109.442854 C236.260313,109.442854 237.063273,110.131813 237.063273,111.515905 L237.063273,113.898865 C237.063273,115.280487 236.261543,115.970681 234.660541,115.970681 L227.957728,115.970681 L227.957728,120.171109 L225.498431,120.171109 Z" id="Fill-14" fill="#FEFEFE" mask="url(#mask-4)"></path>
                <path d="M243.7501,115.86425 L248.433831,115.86425 L246.133159,111.514424 L243.7501,115.86425 Z M238.96185,120.170862 L245.01172,109.442607 L247.415682,109.442607 L253.547938,120.170862 L250.751718,120.170862 L249.466735,117.805189 L242.692603,117.805189 L241.449429,120.170862 L238.96185,120.170862 Z" id="Fill-15" fill="#FEFEFE" mask="url(#mask-4)"></path>
                <polygon id="Fill-16" fill="#FEFEFE" mask="url(#mask-4)" points="257.20897 120.171233 257.20897 109.442978 259.706385 109.442978 259.706385 118.159917 267.716314 118.159917 267.716314 120.171233"></polygon>
                <polygon id="Fill-17" fill="#FEFEFE" mask="url(#mask-4)" points="271.98221 120.171233 274.477166 120.171233 274.477166 109.442978 271.98221 109.442978"></polygon>
                <path d="M298.085183,111.277609 L292.491513,111.277609 L292.491513,114.277916 L298.085183,114.277916 C298.471292,114.277916 298.740585,114.235936 298.894291,114.151977 C299.098413,114.029742 299.204163,113.782803 299.204163,113.423507 L299.204163,112.130783 C299.204163,111.771487 299.098413,111.528252 298.894291,111.403548 C298.740585,111.318354 298.471292,111.277609 298.085183,111.277609 Z M290.032216,120.171109 L290.032216,109.442854 L299.189407,109.442854 C300.794098,109.442854 301.595829,110.134283 301.595829,111.520844 L301.595829,114.033446 C301.595829,115.420007 300.794098,116.112671 299.189407,116.112671 L297.782689,116.112671 L302.713579,120.171109 L299.148829,120.171109 L294.847519,116.112671 L292.491513,116.112671 L292.491513,120.171109 L290.032216,120.171109 Z" id="Fill-18" fill="#FEFEFE" mask="url(#mask-4)"></path>
                <polygon id="Fill-19" fill="#FEFEFE" mask="url(#mask-4)" points="307.153839 120.171233 307.153839 109.442978 318.095249 109.442978 318.095249 111.277733 309.651254 111.277733 309.651254 113.640937 314.572307 113.640937 314.572307 115.475692 309.651254 115.475692 309.651254 118.159917 318.19854 118.159917 318.19854 120.171233"></polygon>
                <path d="M332.392861,111.277609 L325.362962,111.277609 L325.362962,113.607477 L332.039952,113.607477 C333.06056,113.607477 333.76146,113.780334 334.14388,114.128518 C334.522612,114.475467 334.713208,115.148375 334.713208,116.148477 L334.713208,117.630109 C334.713208,118.627742 334.522612,119.30065 334.148799,119.650069 C333.768838,119.997018 333.072857,120.171109 332.057167,120.171109 L325.447808,120.171109 C324.422281,120.171109 323.722611,119.997018 323.34142,119.652538 C322.961459,119.308058 322.774553,118.63515 322.774553,117.638752 L322.774553,117.347365 L324.969475,116.889293 L324.969475,118.159793 L332.531811,118.159793 L332.531811,115.687936 L325.867118,115.687936 C324.84651,115.687936 324.150529,115.517548 323.777946,115.169365 C323.405362,114.824885 323.218456,114.154446 323.218456,113.155579 L323.218456,111.973977 C323.218456,110.978813 323.405362,110.308375 323.777946,109.961426 C324.150529,109.615711 324.84651,109.442854 325.864659,109.442854 L331.924365,109.442854 C332.904395,109.442854 333.589309,109.605834 333.982796,109.931793 C334.376284,110.257752 334.570568,110.865222 334.570568,111.755436 L334.570568,111.986324 L332.392861,112.504895 L332.392861,111.277609 Z" id="Fill-20" fill="#FEFEFE" mask="url(#mask-4)"></path>
                <polygon id="Fill-21" fill="#FEFEFE" mask="url(#mask-4)" points="345.89735 111.347493 345.89735 120.170616 343.402394 120.170616 343.402394 111.347493 338.481342 111.347493 338.481342 109.44236 350.811025 109.44236 350.811025 111.347493"></polygon>
                <path d="M356.483884,115.86425 L361.167614,115.86425 L358.865713,111.514424 L356.483884,115.86425 Z M351.696863,120.170862 L357.746733,109.442607 L360.150695,109.442607 L366.282951,120.170862 L363.486731,120.170862 L362.201748,117.805189 L355.427616,117.805189 L354.183212,120.170862 L351.696863,120.170862 Z" id="Fill-22" fill="#FEFEFE" mask="url(#mask-4)"></path>
                <path d="M372.649455,109.44236 L372.649455,118.160534 L379.712554,118.160534 L379.712554,109.44236 L382.207511,109.44236 L382.207511,117.634554 C382.207511,118.632187 382.023064,119.305095 381.648021,119.650809 C381.279126,119.997758 380.579456,120.170616 379.556389,120.170616 L372.80562,120.170616 C371.785012,120.170616 371.086572,119.997758 370.713989,119.650809 C370.341405,119.305095 370.154499,118.632187 370.154499,117.634554 L370.154499,109.44236 L372.649455,109.44236 Z" id="Fill-23" fill="#FEFEFE" mask="url(#mask-4)"></path>
                <path d="M395.481933,111.277609 L389.885803,111.277609 L389.885803,114.277916 L395.481933,114.277916 C395.868042,114.277916 396.134876,114.235936 396.288582,114.151977 C396.495163,114.029742 396.598453,113.782803 396.598453,113.423507 L396.598453,112.130783 C396.598453,111.771487 396.495163,111.528252 396.288582,111.403548 C396.134876,111.318354 395.868042,111.277609 395.481933,111.277609 Z M387.426507,120.171109 L387.426507,109.442854 L396.586157,109.442854 C398.188388,109.442854 398.988889,110.134283 398.988889,111.520844 L398.988889,114.033446 C398.988889,115.420007 398.188388,116.112671 396.586157,116.112671 L395.17698,116.112671 L400.110329,120.171109 L396.543119,120.171109 L392.241809,116.112671 L389.885803,116.112671 L389.885803,120.171109 L387.426507,120.171109 Z" id="Fill-24" fill="#FEFEFE" mask="url(#mask-4)"></path>
                <path d="M407.789236,115.86425 L412.472966,115.86425 L410.171065,111.514424 L407.789236,115.86425 Z M403.002215,120.170862 L409.052085,109.442607 L411.456047,109.442607 L417.588303,120.170862 L414.792083,120.170862 L413.507101,117.805189 L406.732968,117.805189 L405.488564,120.170862 L403.002215,120.170862 Z" id="Fill-25" fill="#FEFEFE" mask="url(#mask-4)"></path>
                <path d="M421.215766,120.171233 L421.215766,109.442978 L422.91391,109.442978 L430.433209,115.763376 C430.971795,116.221447 431.377579,116.609141 431.65302,116.927692 C431.58416,115.928825 431.549729,115.311478 431.549729,115.075651 L431.549729,109.442978 L433.797527,109.442978 L433.797527,120.171233 L432.100612,120.171233 L424.251767,113.539692 C423.919762,113.261886 423.622187,112.970498 423.360272,112.664294 C423.430362,113.358192 423.466022,113.924917 423.466022,114.369406 L423.466022,120.171233 L421.215766,120.171233 Z" id="Fill-26" fill="#FEFEFE" mask="url(#mask-4)"></path>
                <polygon id="Fill-27" fill="#FEFEFE" mask="url(#mask-4)" points="445.22268 111.347493 445.22268 120.170616 442.727724 120.170616 442.727724 111.347493 437.806672 111.347493 437.806672 109.44236 450.136355 109.44236 450.136355 111.347493"></polygon>
                <path d="M160.499716,56.9268788 L158.31832,55.272389 C156.401299,53.8117461 150.572766,49.3643788 150.711716,44.7095829 C150.827303,40.7980727 154.54207,37.7866543 159.351225,37.7026951 C161.271935,37.6681237 163.053696,38.6867461 164.093978,40.3400012 C161.687556,41.1771237 160.090243,43.4217972 160.090243,45.9973686 C160.090243,46.1257768 160.092703,46.2529502 160.10131,46.3813584 C160.31158,49.8372666 163.284869,52.5980421 166.727885,52.5375421 C168.400206,52.5091441 169.932348,51.8288278 171.04395,50.6212972 C172.155552,49.4125319 172.713812,47.8234808 172.610522,46.1430625 C172.142026,38.4447461 163.565229,32.326838 153.491951,32.5033992 C147.739656,32.6046441 142.559148,34.7048584 139.279676,38.2669502 C136.983923,40.7573278 135.869862,43.7119502 136.059227,46.8011543 C136.29409,50.674389 137.690971,53.7648278 140.585563,56.8256339 C141.936946,58.25294 145.062712,60.8606135 148.371695,63.6189196 C152.231561,66.8377666 156.60665,70.4887563 158.63188,72.6791033 C160.488649,74.6904196 161.375226,76.5424604 161.505568,78.685889 C161.644519,80.9651339 160.889515,83.1209094 159.384425,84.7581135 C157.878106,86.3953176 155.800001,87.3188686 153.53007,87.3596135 C150.646545,87.4102359 147.884755,86.5768176 145.751315,85.0161645 C143.727314,83.5357666 142.534555,81.5602563 142.310759,79.440287 C143.253899,79.8502053 144.26467,80.0897359 145.2779,80.0699808 C147.150655,80.0391135 148.867244,79.2773074 150.111648,77.9240829 C151.357281,76.5708584 151.980713,74.7891951 151.866356,72.9075217 C151.631493,69.0355217 148.299146,65.9413788 144.44051,66.0080523 C141.201616,66.0636135 138.241853,67.5230217 136.109643,70.1183482 C133.979892,72.7025625 132.929773,76.1053788 133.14865,79.698338 C133.982351,93.2799706 151.412616,96.4494298 156.036093,96.5531441 C162.213846,95.791338 175.571515,89.6746645 175.225984,76.4510931 C175.002188,67.8897257 168.919118,63.290491 160.499716,56.9268788" id="Fill-28" fill="#FEFEFE" mask="url(#mask-4)"></path>
                <path d="M233.309526,35.3222053 C230.63873,35.5321033 227.847428,35.6456951 224.970051,35.6456951 C222.093904,35.6456951 219.362855,35.5321033 216.692059,35.3222053 C218.209445,36.3111951 218.400041,38.6040217 218.400041,40.933889 L218.400041,48.6704808 C218.400041,51.3176645 216.262912,53.4610931 213.626546,53.4610931 L209.456809,53.4610931 C206.821673,53.4610931 204.683314,51.3176645 204.683314,48.6704808 L204.683314,40.933889 C204.683314,38.6040217 204.87391,36.3111951 206.388837,35.3222053 C203.7205,35.5321033 200.927969,35.6456951 198.050592,35.6456951 C195.174444,35.6456951 192.445855,35.5321033 189.775059,35.3222053 C191.289986,36.3111951 191.480581,38.6040217 191.480581,40.933889 L191.480581,88.1510523 C191.480581,90.4809196 191.289986,92.7762155 189.775059,93.7627359 C192.445855,93.5553074 195.174444,93.4417155 198.050592,93.4417155 C200.927969,93.4417155 203.7205,93.5553074 206.388837,93.7627359 C204.87391,92.7762155 204.683314,90.4809196 204.683314,88.1510523 L204.683314,63.3361747 C204.683314,60.688991 206.821673,58.5430931 209.456809,58.5430931 L213.626546,58.5430931 C216.262912,58.5430931 218.400041,60.688991 218.400041,63.3361747 L218.400041,88.1510523 C218.400041,90.4809196 218.209445,92.7762155 216.692059,93.7627359 C219.362855,93.5553074 222.093904,93.4417155 224.970051,93.4417155 C227.847428,93.4417155 230.63873,93.5553074 233.309526,93.7627359 C231.79337,92.7762155 231.601545,90.4809196 231.601545,88.1510523 L231.601545,40.933889 C231.601545,38.6040217 231.79337,36.3111951 233.309526,35.3222053" id="Fill-29" fill="#FEFEFE" mask="url(#mask-4)"></path>
                <path d="M269.267761,52.8176941 C266.596965,53.0251227 263.806893,53.1411839 260.928287,53.1411839 C258.05091,53.1411839 255.260838,53.0251227 252.588812,52.8176941 C253.92421,58.3231941 254.733319,65.470837 254.733319,73.291388 C254.733319,81.1094696 253.92421,88.2571125 252.588812,93.7626125 C255.260838,93.5551839 258.05091,93.4415921 260.928287,93.4415921 C263.806893,93.4415921 266.596965,93.5551839 269.267761,93.7626125 C267.932363,88.2571125 267.125714,81.1094696 267.125714,73.291388 C267.125714,65.470837 267.932363,58.3231941 269.267761,52.8176941" id="Fill-30" fill="#FEFEFE" mask="url(#mask-4)"></path>
                <path d="M307.941552,17.2478921 C306.891432,23.8238717 304.627649,25.8524737 300.666952,26.0574329 C296.76159,26.2574533 290.645319,23.4176574 284.986478,25.8524737 C273.208907,30.9208921 275.204626,48.9042084 260.409498,48.9042084 C254.019016,48.9042084 246.585792,44.3580655 245.373359,36.2436574 C244.187978,28.3070451 250.101357,16.8034023 258.469113,16.8034023 C262.715089,16.8034023 265.720349,20.135841 266.354847,24.1090859 C267.120918,28.936739 263.832839,30.8702696 261.682184,30.6220961 C259.763933,30.3973819 258.55027,28.6935043 258.79374,26.908137 C258.992943,25.4400859 260.006173,24.1473614 261.502655,24.1473614 C261.663739,23.0139125 260.973907,22.039739 260.086101,22.2002492 C258.058411,22.5706574 256.288947,25.6919635 256.447571,29.0182288 C256.575455,31.6184941 258.144486,34.3508717 261.865402,34.3508717 C264.223867,34.3508717 268.300151,32.5050043 268.494435,26.6649023 C268.68626,20.9655553 266.304432,18.8073104 265.864218,14.6525655 C265.340388,9.70020839 268.252195,6.69743288 270.934057,6.09243288 C274.008178,5.1812288 277.709419,6.31097369 279.407564,9.1334839 C275.36571,9.1334839 273.4782,10.9003308 272.617446,12.299239 C270.920531,15.0587798 270.737314,19.406137 272.77853,20.5778614 C274.476674,21.5520349 276.739227,20.2617798 278.518528,18.3035553 C280.216672,16.4379329 280.569581,15.7069941 280.456454,11.8127696 C280.377756,8.97050431 280.863467,4.10087165 284.340912,1.58333084 C287.085487,-0.403291613 290.673601,-0.188454878 293.553437,1.01660635 C297.434207,2.6389941 302.125315,4.01814716 306.082323,0.772136958 C305.517915,4.01814716 303.57753,6.37147369 300.102544,7.75433084 C296.002897,9.38165737 292.825485,8.56429002 290.159608,9.45820839 C287.777779,10.2545859 286.701837,12.4387594 286.924403,13.840137 C287.327728,16.3552084 290.683438,16.3403921 292.744329,15.9514635 C295.332738,15.4637594 297.434207,13.9216268 299.051195,12.0560043 C298.240856,17.5738512 298.419155,19.9494023 300.911652,21.1458206 C302.768421,22.039739 305.678999,20.982841 307.941552,17.2478921" id="Fill-31" fill="#FEFEFE" mask="url(#mask-4)"></path>
                <path d="M309.709171,60.3753788 C306.56496,60.3753788 304.017129,56.4885625 304.017129,51.6967155 C304.017129,46.8999298 306.56496,43.0118788 309.709171,43.0118788 C312.855841,43.0118788 315.403672,46.8999298 315.403672,51.6967155 C315.403672,56.4885625 312.855841,60.3753788 309.709171,60.3753788 M327.211984,75.3028278 C325.208887,71.2801951 323.562388,66.5006951 318.710196,66.5006951 C324.592833,64.8462053 328.953166,58.7665727 328.953166,51.2670421 C328.953166,42.4414502 322.151982,35.2863992 309.709171,35.2863992 L290.644704,35.3222053 C292.160861,36.3111951 292.350226,38.6040217 292.350226,40.933889 L292.350226,88.1510523 C292.350226,90.4809196 292.160861,92.7762155 290.644704,93.7627359 C293.3155,93.5553074 296.105572,93.4417155 298.982949,93.4417155 C301.860326,93.4417155 304.649168,93.5553074 307.322424,93.7627359 C305.0279,87.4781441 304.754918,81.6540931 304.754918,76.0448788 C304.754918,72.1271951 306.159176,68.7046237 309.709171,68.4231135 C311.6016,68.2712461 313.203831,70.1825523 314.454384,74.3496441 C316.457481,81.0206951 318.777827,94.8887768 329.215081,94.8887768 C335.400212,94.8887768 338.774367,90.1598992 342.078432,87.3719604 C335.647371,87.9028788 332.465042,85.853287 327.211984,75.3028278" id="Fill-32" fill="#FEFEFE" mask="url(#mask-4)"></path>
                <path d="M396.980628,61.2218849 C402.42797,54.3051298 411.847075,45.5548543 406.996113,37.509589 C404.360977,33.1325992 398.630816,32.2423849 394.975072,32.2423849 C387.407816,32.2423849 381.269412,37.6330584 381.269412,44.2831196 C381.269412,48.141538 384.38657,51.271487 388.229221,51.271487 C392.071872,51.271487 395.186571,48.141538 395.186571,44.2831196 C395.186571,41.6569257 393.742964,39.3739768 391.610754,38.1800278 C392.971975,36.239089 395.311995,34.8685788 397.189668,35.7081706 C399.089475,36.5539359 399.187847,39.3060686 398.034437,43.0126196 C397.160157,45.8240176 390.769675,60.1464666 387.292229,64.948191 C386.579033,65.9310074 385.988802,66.2544972 385.591626,66.2544972 C385.142804,66.2544972 384.664471,66.0668237 384.182449,65.2704461 C381.285398,60.4860074 378.142417,43.1817727 378.505163,35.2859053 C375.834367,35.4933339 374.237054,35.6069257 371.362136,35.6069257 C368.484759,35.6069257 366.889905,35.4933339 364.219109,35.2859053 C369.952959,45.132589 367.771563,68.0707319 365.242177,68.0707319 C364.39249,68.0707319 364.188368,67.1521196 363.871119,65.1408033 C362.99192,59.5389972 359.337406,40.4728543 357.559334,35.2859053 C354.889768,35.4933339 352.098466,35.6069257 349.22109,35.6069257 C346.343713,35.6069257 343.553641,35.4933339 340.882845,35.2859053 C348.303772,45.8363645 354.769262,78.0198951 356.205492,93.6906298 C358.876288,93.4807319 361.07121,93.36714 363.946127,93.36714 C366.823504,93.36714 368.741756,93.4807319 371.410092,93.6906298 C371.039968,87.8307727 371.462967,67.364487 374.414123,67.364487 C377.474718,67.364487 378.684691,88.5728237 378.684691,93.6906298 C381.357947,93.4807319 385.344466,93.36714 388.221843,93.36714 C391.096761,93.36714 395.083281,93.4807319 397.754077,93.6906298 C395.066066,89.31364 391.812416,80.8078339 391.812416,74.0343033 C391.812416,69.2696196 393.815513,65.2445176 396.980628,61.2218849" id="Fill-33" fill="#FEFEFE" mask="url(#mask-4)"></path>
                <path d="M506.051904,76.3444155 C499.026924,78.6952727 497.925159,59.4661502 501.229224,46.3240686 C506.467525,48.8144461 509.498608,54.3495788 510.324932,60.713191 C511.222575,67.638589 508.991993,75.3603645 506.051904,76.3444155 M485.79099,32.6214359 C478.536065,33.3931196 472.359542,37.3169768 472.359542,43.8349257 C472.359542,47.6155584 475.413988,50.6813033 479.177941,50.6813033 C482.945584,50.6813033 485.997571,47.6155584 485.997571,43.8349257 C485.997571,41.2618237 484.583475,39.0208543 482.491844,37.8515992 C483.733788,36.5008441 485.457755,36.1921706 486.52386,37.0897931 C489.106122,39.2702625 489.42706,52.5481604 489.42706,62.4084257 C489.42706,78.072987 486.52386,88.8172931 480.730987,91.6867217 C486.656662,91.6867217 489.106122,93.7622421 497.511997,93.7622421 C511.664019,93.7622421 522.843981,83.1907931 522.843981,63.4085278 C522.843981,45.2869257 507.843502,30.2767523 485.79099,32.6214359" id="Fill-34" fill="#FEFEFE" mask="url(#mask-4)"></path>
                <path d="M445.198702,65.507137 C445.03024,67.6221676 443.80797,70.286637 441.519595,70.286637 C439.22999,70.286637 438.090106,67.6221676 437.991734,65.507137 C437.753182,60.517739 440.55678,52.8848614 441.845451,49.5018002 C443.027143,52.8848614 445.58973,60.517739 445.198702,65.507137 M462.589618,82.8792798 C458.953548,75.3624635 453.241831,56.206188 447.804327,42.9986676 C446.826757,40.6206472 445.859023,38.7365043 445.009336,37.5474941 C442.064329,33.4273206 438.385221,32.2790553 433.084208,32.2790553 C425.514493,32.2790553 419.285095,37.6709635 419.169508,44.3222594 C419.101877,48.1831472 422.162472,51.3130961 426.007582,51.3130961 C429.847773,51.3130961 433.017807,48.1831472 433.084208,44.3222594 C433.130934,41.6960655 431.725446,39.4118819 429.61414,38.2179329 C431.009791,36.2745247 433.373175,34.9077186 435.236092,35.7460757 C437.119913,36.5930757 437.054742,39.310637 435.951747,43.0517594 C433.159216,52.5354431 420.404075,86.9290757 413.660684,93.7631063 C416.520845,93.5408614 421.727176,93.3383717 424.284845,93.3383717 C427.157303,93.3383717 430.505635,93.461841 433.027644,93.6593921 L434.101127,93.7458206 L433.617875,92.7839941 C433.315381,92.1814635 433.048548,91.5468308 432.824752,90.8973819 C430.752794,84.8955349 432.728839,79.8048921 437.349857,77.9022288 C440.045246,76.7910043 443.044358,77.0539941 445.181487,78.5874839 C446.915291,79.8295859 447.831379,82.100188 448.892566,84.7263819 C451.301447,90.6973614 454.353434,97.3770553 461.380873,97.3770553 C467.564774,97.3770553 471.021316,92.6481778 474.374566,89.8614737 C467.889402,90.388688 464.308666,86.4314941 462.589618,82.8792798" id="Fill-35" fill="#FEFEFE" mask="url(#mask-4)"></path>
                <path d="M31.5367889,65.507137 C31.3695568,67.6221676 30.1472864,70.286637 27.858911,70.286637 C25.5693059,70.286637 24.429422,67.6221676 24.3298205,65.507137 C24.0924984,60.517739 26.8936371,52.8848614 28.1835381,49.5018002 C29.3676894,52.8848614 31.9302764,60.517739 31.5367889,65.507137 M48.9289339,82.8792798 C45.292864,75.3624635 39.5811478,56.206188 34.1448729,42.9986676 C33.1648432,40.6206472 32.1983397,38.7365043 31.3486527,37.5474941 C28.4036452,33.4273206 24.7233079,32.2790553 19.4210646,32.2790553 C11.8525796,32.2790553 5.62318149,37.6709635 5.5088242,44.3222594 C5.4399639,48.1831472 8.50178807,51.3130961 12.3444389,51.3130961 C16.18586,51.3130961 19.3571229,48.1831472 19.4235239,44.3222594 C19.4690209,41.6960655 18.0647626,39.4118819 15.9534565,38.2179329 C17.3491073,36.2745247 19.7124913,34.9077186 21.5754084,35.7460757 C23.4579999,36.5930757 23.3940581,39.310637 22.2910637,43.0517594 C19.4973028,52.5354431 6.74216141,86.9290757 0,93.7631063 C2.86016185,93.5408614 8.06772223,93.3383717 10.6253906,93.3383717 C13.4953897,93.3383717 16.8437219,93.461841 19.3645008,93.6593921 L20.440443,93.7458206 L19.9571913,92.7839941 C19.6534681,92.1814635 19.3866345,91.5468308 19.1628385,90.8973819 C17.0908812,84.8955349 19.0693852,79.8048921 23.6891737,77.9022288 C26.3833331,76.7910043 29.3849045,77.0539941 31.5208035,78.5874839 C33.2533779,79.8295859 34.1706955,82.100188 35.2306523,84.7263819 C37.6407629,90.6973614 40.6927499,97.3770553 47.7201897,97.3770553 C53.9040908,97.3770553 57.3594024,92.6481778 60.7126532,89.8614737 C54.2287179,90.388688 50.6467525,86.4314941 48.9289339,82.8792798" id="Fill-36" fill="#FEFEFE" mask="url(#mask-4)"></path>
                <path d="M98.2967293,65.507137 C98.1294971,67.6221676 96.9072268,70.286637 94.6176217,70.286637 C92.3280166,70.286637 91.1893623,67.6221676 91.0897608,65.507137 C90.8524387,60.517739 93.6535775,52.8848614 94.9434785,49.5018002 C96.1264001,52.8848614 98.6902167,60.517739 98.2967293,65.507137 M115.688874,82.8792798 C112.052804,75.3624635 106.341088,56.206188 100.904813,42.9986676 C99.9247836,40.6206472 98.95828,38.7365043 98.1085931,37.5474941 C95.1635855,33.4273206 91.4832483,32.2790553 86.181005,32.2790553 C78.6125199,32.2790553 72.3831219,37.6709635 72.2687646,44.3222594 C72.1999043,48.1831472 75.2617284,51.3130961 79.1043792,51.3130961 C82.9458004,51.3130961 86.1170633,48.1831472 86.1834643,44.3222594 C86.2289613,41.6960655 84.8247029,39.4118819 82.7133969,38.2179329 C84.1090477,36.2745247 86.4724316,34.9077186 88.3353487,35.7460757 C90.2179402,36.5930757 90.1539985,39.310637 89.051004,43.0517594 C86.2572432,52.5354431 73.5021018,86.9290757 66.7599404,93.7631063 C69.6201022,93.5408614 74.8276626,93.3383717 77.385331,93.3383717 C80.25533,93.3383717 83.6036622,93.461841 86.1244412,93.6593921 L87.2003834,93.7458206 L86.7171316,92.7839941 C86.4134085,92.1814635 86.1465748,91.5468308 85.9227788,90.8973819 C83.8508215,84.8955349 85.8293256,79.8048921 90.4491141,77.9022288 C93.1432734,76.7910043 96.1448448,77.0539941 98.2807439,78.5874839 C100.013318,79.8295859 100.929406,82.100188 101.990593,84.7263819 C104.400703,90.6973614 107.45269,97.3770553 114.48013,97.3770553 C120.664031,97.3770553 124.119343,92.6481778 127.472594,89.8614737 C120.988658,90.388688 117.406693,86.4314941 115.688874,82.8792798" id="Fill-37" fill="#FEFEFE" mask="url(#mask-4)"></path>
            </g>
        </g>
    </g>
</svg>